<?xml version="1.0" encoding="UTF-8"?>
<!DOCTYPE svg PUBLIC "-//W3C//DTD SVG 1.1//EN" "http://www.w3.org/Graphics/SVG/1.1/DTD/svg11.dtd">
<svg version="1.2" xmlns="http://www.w3.org/2000/svg" xmlns:xlink="http://www.w3.org/1999/xlink" x="0" y="0" width="338" height="105" viewBox="0 0 338 105">
<style type="text/css"><![CDATA[
text { font:12px Dialog; }
]]></style>
<rect x="-488" y="-485" width="1314" height="1075" style="fill:rgb(255,255,255);stroke:none" />
<clipPath id="clip1"><path d="M11,14 L327,14 L327,91 L11,91 L11,14 Z" /></clipPath>
<path d="M23,18 C18.5817261,18 15,21.5817204 15,26 L15,78 C15,82.4182816 18.5817261,86 23,86 L314,86 C318.4182739,86 322,82.4182816 322,78 L322,26 C322,21.5817204 318.4182739,18 314,18 Z" style="fill:rgb(220,230,242);stroke:none" clip-path="url(#clip1)" />
<clipPath id="clip2"><path d="M11,14 L327,14 L327,91 L11,91 L11,14 Z" /></clipPath>
<path d="M23,18 C18.5817261,18 15,21.5817204 15,26 L15,78 C15,82.4182816 18.5817261,86 23,86 L314,86 C318.4182739,86 322,82.4182816 322,78 L322,26 C322,21.5817204 318.4182739,18 314,18 Z" style="fill:none;stroke:rgb(85,142,213);stroke-width:5" clip-path="url(#clip2)" />
<clipPath id="clip3"><path d="M47,34 L291,34 L291,71 L47,71 L47,34 Z" /></clipPath>
<path d="M58.9668121,53.8359375 C58.9668121,56.234375 58.4140701,58.0742188 57.308609,59.3554688 C56.2031326,60.6367188 54.6191483,61.2773438 52.5566559,61.2773438 C51.6425934,61.2773438 50.7949295,61.1210938 50.0136871,60.8085938 L50.0136871,57.1640625 C50.6855545,57.671875 51.4511795,57.9257813 52.3105621,57.9257813 C54.1699295,57.9257813 55.0996246,56.515625 55.0996246,53.6953125 L55.0996246,42.8085938 L58.9668121,42.8085938 Z M79.0761871,60.9609375 L74.8574371,60.9609375 L73.4980621,56.8007813 L66.9004059,56.8007813 L65.5644684,60.9609375 L61.3691559,60.9609375 L68.0136871,42.8085938 L72.5605621,42.8085938 Z M72.5839996,53.8125 L70.5214996,47.5195313 C70.3886795,47.1210938 70.2949295,46.59375 70.2402496,45.9375 L70.1347809,45.9375 C70.0879059,46.46875 69.9824371,46.9804688 69.8183746,47.4726563 L67.7441559,53.8125 Z M96.8418121,42.8085938 L90.5371246,60.9609375 L86.1660309,60.9609375 L79.9433746,42.8085938 L84.1152496,42.8085938 L88.0410309,55.640625 C88.2363358,56.2734375 88.3574371,56.8710938 88.4043121,57.4335938 L88.4746246,57.4335938 C88.537117,56.8554688 88.6699295,56.2421875 88.8730621,55.59375 L92.7988434,42.8085938 Z M115.3339996,60.9609375 L111.1152496,60.9609375 L109.7558746,56.8007813 L103.1582184,56.8007813 L101.8222809,60.9609375 L97.6269684,60.9609375 L104.2714996,42.8085938 L108.8183746,42.8085938 Z M108.8418121,53.8125 L106.7793121,47.5195313 C106.6464996,47.1210938 106.5527496,46.59375 106.4980621,45.9375 L106.3925934,45.9375 C106.3457184,46.46875 106.2402496,46.9804688 106.0761871,47.4726563 L104.0019684,53.8125 Z M116.5879059,42.7617188 L126.3261871,42.7617188 C126.1074371,42.2382851 125.9004059,41.7617188 125.7050934,41.3320313 L129.4785309,40.7695313 C129.7597809,41.4726563 130.0136871,42.1367188 130.2402496,42.7617188 L139.6035309,42.7617188 L139.6035309,45.1523438 L116.5879059,45.1523438 Z M119.9394684,51.3867188 L119.9394684,46.1367188 L136.2988434,46.1367188 L136.2988434,51.3867188 Z M133.1582184,49.3710938 L133.1582184,48.1523438 L123.0800934,48.1523438 L123.0800934,49.3710938 Z M117.7129059,52.3945313 L138.5722809,52.3945313 L138.5722809,60.1289063 C138.5722809,61.2460938 138.3535309,62.109375 137.9160309,62.71875 C137.4785309,63.328125 136.8925934,63.6972656 136.1582184,63.8261719 C135.4238434,63.9550781 133.9238434,64.0195313 131.6582184,64.0195313 C131.4863434,63.0664063 131.2832184,62.1523438 131.0488434,61.2773438 C131.9394684,61.3554688 132.8925934,61.3945313 133.9082184,61.3945313 C134.9550934,61.3945313 135.4785309,60.8867188 135.4785309,59.8710938 L135.4785309,54.7382813 L120.8066559,54.7382813 L120.8066559,63.9492188 L117.7129059,63.9492188 Z M122.8457184,61.8164063 L122.8457184,55.7695313 L133.3925934,55.7695313 L133.3925934,61.0898438 L125.6582184,61.0898438 L125.6582184,61.8164063 Z M130.5800934,59.1210938 L130.5800934,57.7382813 L125.6582184,57.7382813 L125.6582184,59.1210938 Z M141.2324371,52.5585938 L146.6933746,52.5585938 L146.6933746,47.9648438 L142.5214996,47.9648438 L142.5214996,45.0117188 L147.7597809,45.0117188 C147.1347809,44.2148438 146.4980621,43.4648438 145.8496246,42.7617188 L148.4980621,40.8867188 C149.5761871,41.9335938 150.5527496,42.9492188 151.4277496,43.9335938 L149.8808746,45.0117188 L154.3691559,45.0117188 C155.4550934,43.5507851 156.3964996,42.1757813 157.1933746,40.8867188 L160.5683746,42.6445313 C159.8418121,43.4960938 159.1543121,44.2851563 158.5058746,45.0117188 L163.4511871,45.0117188 L163.4511871,47.9648438 L159.6777496,47.9648438 L159.6777496,52.5585938 L164.4355621,52.5585938 L164.4355621,55.5117188 L159.6777496,55.5117188 L159.6777496,63.7851563 L156.2793121,63.7851563 L156.2793121,55.5117188 L149.9980621,55.5117188 C149.6699371,59.4179688 148.2793121,62.3085938 145.8261871,64.1835938 C144.9980621,63.5585938 143.9355621,62.8867188 142.6386871,62.1679688 C144.8652496,60.5351563 146.1738434,58.3164063 146.5644684,55.5117188 L141.2324371,55.5117188 Z M150.0683746,52.5585938 L156.2793121,52.5585938 L156.2793121,47.9648438 L150.0683746,47.9648438 Z M186.7129059,53.2382813 C185.5097809,55.3164063 183.9472809,57.1367188 182.0254059,58.6992188 C183.8066559,59.4960938 186.1894684,60.1210938 189.1738434,60.5742188 C188.4863434,61.6992188 187.8222809,62.8398438 187.1816559,63.9960938 C183.9941559,63.2773438 181.2832184,62.2070313 179.0488434,60.7851563 C176.7519684,62.1289063 174.0332184,63.2773438 170.8925934,64.2304688 C170.3300934,63.1992188 169.7363434,62.1914063 169.1113434,61.2070313 C171.7207184,60.4726563 174.0722809,59.6210938 176.1660309,58.6523438 C175.0254059,57.5898438 173.9941559,56.3710938 173.0722809,54.9960938 C171.2597809,57.8867188 169.1816559,60.3398438 166.8379059,62.3554688 C166.5097809,60.8867188 166.1660309,59.5820313 165.8066559,58.4414063 C168.8535309,55.5820313 171.1269684,52.2617188 172.6269684,48.4804688 L166.7441559,48.4804688 L166.7441559,45.6679688 C167.1816559,44.3867188 167.5722809,43.0429688 167.9160309,41.6367188 L171.1269684,41.9882813 C170.8925934,42.9570313 170.5722809,44.1601563 170.1660309,45.5976563 L173.5410309,45.5976563 C173.9004059,44.2695313 174.2597809,42.7226563 174.6191559,40.9570313 L178.0175934,41.2382813 L177.0332184,45.5976563 L183.5957184,45.5976563 C182.7207184,44.7382813 181.8222809,43.8789063 180.9004059,43.0195313 L182.9629059,41.0742188 C184.4004059,42.1835938 185.6191559,43.1914063 186.6191559,44.0976563 L185.1425934,45.5976563 L189.1035309,45.5976563 L189.1035309,48.4804688 L176.1425934,48.4804688 C175.9082184,49.1367188 175.6347809,49.8554688 175.3222809,50.6367188 L186.7129059,50.6367188 Z M179.0019684,57.0117188 C180.6269684,55.8554688 181.8925934,54.6367188 182.7988434,53.3554688 L175.6738434,53.3554688 C176.5488434,54.7460938 177.6582184,55.9648438 179.0019684,57.0117188 Z M190.6855621,47.8945313 L193.8027496,47.8945313 L193.8027496,45.3164063 C192.8730621,45.4101563 191.9433746,45.4882813 191.0136871,45.5507813 C190.9043121,44.3632813 190.7636871,43.3632813 190.5918121,42.5507813 C193.0605621,42.4257851 195.8418121,42.0976601 198.9355621,41.5664063 L199.6621246,44.4960938 C198.7089996,44.6679688 197.7558746,44.8203125 196.8027496,44.953125 L196.8027496,47.8945313 L199.4746246,47.8945313 L199.4746246,50.6835938 L196.8027496,50.6835938 L196.8027496,53.2617188 L197.4589996,52.6054688 C198.2402496,53.2617188 199.2558746,54.1835938 200.5058746,55.3710938 L198.4199371,57.3867188 C197.8652496,56.6992188 197.3261871,56.0585938 196.8027496,55.4648438 L196.8027496,64.2070313 L193.8027496,64.2070313 L193.8027496,55.171875 C193.2246246,56.9296875 192.5136871,58.6054688 191.6699371,60.1992188 C191.3730621,58.8554688 190.9980621,57.5429688 190.5449371,56.2617188 C191.5761871,54.8320313 192.5136871,52.9726563 193.3574371,50.6835938 L190.6855621,50.6835938 Z M200.2949371,41.9648438 L212.5058746,41.9648438 L212.5058746,49.8398438 L200.2949371,49.8398438 Z M209.3886871,44.6835938 L203.4121246,44.6835938 L203.4121246,47.1210938 L209.3886871,47.1210938 Z M198.6074371,60.7617188 L204.7949371,60.7617188 L204.7949371,58.7460938 L200.2011871,58.7460938 L200.2011871,56.1210938 L204.7949371,56.1210938 L204.7949371,54.1757813 L199.7793121,54.1757813 L199.7793121,51.4570313 L213.2793121,51.4570313 L213.2793121,54.1757813 L208.0058746,54.1757813 L208.0058746,56.1210938 L212.6464996,56.1210938 L212.6464996,58.7460938 L208.0058746,58.7460938 L208.0058746,60.7617188 L213.8418121,60.7617188 L213.8418121,63.4804688 L198.6074371,63.4804688 Z M220.3222809,51.6210938 C220.3222809,57.4882813 219.5254059,61.6757813 217.9316559,64.1835938 L215.2832184,61.9335938 C216.6113434,59.6367188 217.2597809,56.0585938 217.2285309,51.1992188 L217.2285309,43.1601563 L225.8652496,43.1601563 C225.6386871,42.5898438 225.4472809,42.1289063 225.2910309,41.7773438 L229.1113434,40.8867188 L230.0254059,43.1601563 L238.2754059,43.1601563 L238.2754059,46.0429688 L220.3222809,46.0429688 Z M237.0332184,47.4960938 L237.0332184,50.3789063 L231.7129059,54.0585938 L238.2754059,54.0585938 L238.2754059,56.6601563 L236.4238434,60.6210938 L233.5410309,59.8242188 L234.9707184,56.8476563 L231.1972809,56.8476563 L231.1972809,60.5976563 C231.1972809,61.5976563 230.9726715,62.3554688 230.5234528,62.8710938 C230.074234,63.3867188 229.496109,63.6972656 228.7890778,63.8027344 C228.0820465,63.9082031 226.4472809,63.9804688 223.8847809,64.0195313 C223.7129059,62.9101563 223.4863434,61.8789063 223.2050934,60.9257813 C224.9160309,61.0039063 226.0097809,61.0429688 226.4863434,61.0429688 C227.4238434,61.0429688 227.8847809,60.5039063 227.8691559,59.4257813 L227.8691559,56.8476563 L220.9316559,56.8476563 L220.9316559,54.0585938 L226.8964996,54.0585938 C225.7011871,53.2382813 224.5254059,52.4960938 223.3691559,51.8320313 L224.9863434,50.2851563 L221.7988434,50.2851563 L221.7988434,47.4960938 Z M232.6504059,50.2851563 L225.9355621,50.2851563 L229.2871246,52.546875 Z M243.7714996,40.9335938 C245.0527344,42.4648438 246.1699219,43.8632813 247.1230621,45.1289063 L244.2168121,47.0976563 C243.0918121,45.2382813 242.0683594,43.7617188 241.1464996,42.6679688 Z M263.2011719,46.6054688 C262.9042969,47.8710938 262.7089844,48.8320313 262.6152344,49.4882813 C261.1621094,49.5195313 260.0996094,49.5351563 259.4277344,49.5351563 C257.6621094,49.5351563 256.7792969,48.6992188 256.7792969,47.0273438 L256.7792969,44.6601563 L252.7714996,44.6601563 C252.7558594,46.8867188 251.7050934,48.8789063 249.6191559,50.6367188 L261.4902344,50.6367188 L261.4902344,53.4023438 C260.3886719,55.5742188 259.0410156,57.4375 257.4472656,58.9921875 C259.1816406,59.8125 261.1386719,60.3945313 263.3183594,60.7382813 C262.6933594,61.6914063 262.0839844,62.7851563 261.4902344,64.0195313 C258.9511719,63.4179688 256.6777344,62.4882813 254.6699371,61.2304688 C252.6464844,62.5742188 250.3261719,63.5585938 247.7089996,64.1835938 C247.3027344,63.1992188 246.6933594,62.1757813 245.8808746,61.1132813 C248.1464844,60.6210938 250.1269531,59.9453125 251.8222809,59.0859375 C250.4941406,57.875 249.3183594,56.4726563 248.2949371,54.8789063 L250.3457184,53.5429688 L247.8261871,53.5429688 L247.8261871,50.6367188 L249.4316559,50.6367188 C248.8144531,49.9257813 248.0136871,49.0976563 247.0293121,48.1523438 C248.7167969,46.9648438 249.5605469,45.3554688 249.5605621,43.3242188 L249.5605621,41.8007813 L259.9433594,41.8007813 L259.9433594,45.5507813 C259.9433594,46.1523438 260.1289063,46.4882813 260.5,46.5585938 C260.8710938,46.6289063 261.7714844,46.6445313 263.2011719,46.6054688 Z M254.6347809,57.3046875 C255.9785156,56.2265625 257.0371094,54.9726563 257.8105469,53.5429688 L251.0605621,53.5429688 C252.0527344,55.0117188 253.2441406,56.265625 254.6347809,57.3046875 Z M247.6152496,55.1367188 C247.7402344,56.3242188 247.9668121,57.5195313 248.2949371,58.7226563 C246.1074219,60.6601563 244.4980621,62.2070313 243.4668121,63.3632813 L241.7558746,60.8554688 C242.0839844,60.4179688 242.2558594,59.8085938 242.2714996,59.0273438 L242.2714996,52.0195313 L239.9980621,52.0195313 L239.9980621,48.8320313 L245.4355621,48.8320313 L245.4355621,57.3398438 C245.8730469,56.8710938 246.5996094,56.1367188 247.6152496,55.1367188 Z M268.8378906,40.9570313 C270.0566406,42.5976563 271.0878906,44.0507813 271.9316406,45.3164063 L268.9316406,47.1210938 C268.1660156,45.7460938 267.2207031,44.2148438 266.0957031,42.5273438 Z M272.5175781,48.1054688 L278.4707031,48.1054688 L278.4707031,40.9804688 L281.9863281,40.9804688 L281.9863281,48.1054688 L287.9863281,48.1054688 L287.9863281,51.2460938 L281.9863281,51.2460938 L281.9863281,64.1367188 L278.4707031,64.1367188 L278.4707031,51.2460938 L272.5175781,51.2460938 Z M273.6660156,55.9335938 C273.7910156,57.3867188 273.9238281,58.5429688 274.0644531,59.4023438 C271.0644531,61.3554688 269.1582031,62.7773438 268.3457031,63.6679688 L266.6113281,61.3710938 C267.0019531,60.9023438 267.1972656,60.2460938 267.1972656,59.4023438 L267.1972656,51.8789063 L264.8066406,51.8789063 L264.8066406,48.8320313 L270.3144531,48.8320313 L270.3144531,58.0898438 C270.9550781,57.7148438 272.0722656,56.9960938 273.6660156,55.9335938 Z" style="fill:rgb(55,96,146);stroke:none" clip-path="url(#clip3)" />
</svg>
